<svg width="24" xmlns="http://www.w3.org/2000/svg" height="24" id="screenshot-1f771e39-d264-8038-8007-b0bb8b166551" viewBox="0 0 24 24" xmlns:xlink="http://www.w3.org/1999/xlink" fill="none" version="1.1"><g id="shape-1f771e39-d264-8038-8007-b0bb8b166551" width="800" height="800" rx="0" ry="0" style="fill: rgb(0, 0, 0);"><g id="shape-1f771e39-d264-8038-8007-b0bb8b16d109" style="display: none;"><g class="fills" id="fills-1f771e39-d264-8038-8007-b0bb8b16d109"><rect width="24" height="24" x="0" transform="matrix(1.000000, 0.000000, 0.000000, 1.000000, 0.000000, 0.000000)" style="fill: none;" ry="0" fill="none" rx="0" y="0"/></g></g><g id="shape-1f771e39-d264-8038-8007-b0bb8b171b1c"><g class="fills" id="fills-1f771e39-d264-8038-8007-b0bb8b171b1c"><path d="M11.999987602233887,21.75C6.6158013343811035,21.75,2.2500176429748535,17.38494873046875,2.2500176429748535,12C2.2500176429748535,6.61505126953125,6.6158013343811035,2.25,11.999987602233887,2.25C17.38499641418457,2.25,21.74998664855957,6.61505126953125,21.74998664855957,12C21.74998664855957,17.38494873046875,17.38499641418457,21.75,11.999987602233887,21.75ZM11.999987602233887,19.5C13.658282279968262,19.5,15.186755180358887,18.954833984375,16.42881965637207,18.044189453125L5.9564995765686035,7.57269287109375C5.044466495513916,8.8140869140625,4.5000176429748535,10.3416748046875,4.5000176429748535,12C4.5000176429748535,16.1414794921875,7.857698917388916,19.5,11.999987602233887,19.5ZM11.999987602233887,4.5C10.328997611999512,4.5,8.790759086608887,5.05279541015625,7.544222354888916,5.97747802734375L18.022554397583008,16.45654296875C18.946428298950195,15.20928955078125,19.49998664855957,13.6717529296875,19.49998664855957,12C19.49998664855957,7.857666015625,16.142305374145508,4.5,11.999987602233887,4.5Z" style="fill: rgb(26, 82, 101); fill-opacity: 1;"/></g></g></g></svg>