<svg width="24" xmlns="http://www.w3.org/2000/svg" height="24" id="screenshot-1f771e39-d264-8038-8007-b0e131c5b3bb" viewBox="0 0 24 24" xmlns:xlink="http://www.w3.org/1999/xlink" fill="none" version="1.1"><g id="shape-1f771e39-d264-8038-8007-b0e131c5b3bb" width="800" height="800" rx="0" ry="0" style="fill: rgb(0, 0, 0);"><g id="shape-1f771e39-d264-8038-8007-b0e131c72ce8" style="display: none;"><g class="fills" id="fills-1f771e39-d264-8038-8007-b0e131c72ce8"><rect width="24" height="24" x="0" transform="matrix(1.000000, 0.000000, 0.000000, 1.000000, 0.000000, 0.000000)" style="fill: none;" ry="0" fill="none" rx="0" y="0"/></g></g><g id="shape-1f771e39-d264-8038-8007-b0e131c7994f"><g class="fills" id="fills-1f771e39-d264-8038-8007-b0e131c7994f"><path d="M17,3.33782958984375C15.529098510742188,2.48699951171875,13.821395874023438,2,12,2C6.477142333984375,2,2,6.4771728515625,2,12C2,13.59967041015625,2.3756256103515625,15.111572265625,3.04345703125,16.4525146484375C3.220947265625,16.80877685546875,3.2800140380859375,17.21612548828125,3.1771240234375,17.6005859375L2.581512451171875,19.82672119140625C2.3229522705078125,20.79296875,3.2070159912109375,21.677001953125,4.1733551025390625,21.41851806640625L6.399383544921875,20.8228759765625C6.783935546875,20.719970703125,7.1912078857421875,20.77911376953125,7.5475311279296875,20.95648193359375C8.88836669921875,21.6243896484375,10.400299072265625,22,12,22C17.522796630859375,22,22,17.5228271484375,22,12C22,10.1785888671875,21.51300048828125,8.47088623046875,20.662200927734375,7" fill="none" stroke-linecap="round" style="fill: none;"/></g><g fill="none" stroke-linecap="round" id="strokes-203afd92-1e93-807c-8007-b0e4a9ec1d55-1f771e39-d264-8038-8007-b0e131c7994f" class="strokes"><g class="stroke-shape"><path d="M17,3.33782958984375C15.529098510742188,2.48699951171875,13.821395874023438,2,12,2C6.477142333984375,2,2,6.4771728515625,2,12C2,13.59967041015625,2.3756256103515625,15.111572265625,3.04345703125,16.4525146484375C3.220947265625,16.80877685546875,3.2800140380859375,17.21612548828125,3.1771240234375,17.6005859375L2.581512451171875,19.82672119140625C2.3229522705078125,20.79296875,3.2070159912109375,21.677001953125,4.1733551025390625,21.41851806640625L6.399383544921875,20.8228759765625C6.783935546875,20.719970703125,7.1912078857421875,20.77911376953125,7.5475311279296875,20.95648193359375C8.88836669921875,21.6243896484375,10.400299072265625,22,12,22C17.522796630859375,22,22,17.5228271484375,22,12C22,10.1785888671875,21.51300048828125,8.47088623046875,20.662200927734375,7" style="fill: none; stroke-width: 1.5; stroke: rgb(26, 82, 101); stroke-opacity: 1;"/></g></g></g></g></svg>