<svg width="24" xmlns="http://www.w3.org/2000/svg" height="24" id="screenshot-1f771e39-d264-8038-8007-b0bb604e89fb" viewBox="0 0 24 24" xmlns:xlink="http://www.w3.org/1999/xlink" fill="none" version="1.1"><g id="shape-1f771e39-d264-8038-8007-b0bb604e89fb" width="800" height="800" rx="0" ry="0" style="fill: rgb(0, 0, 0);"><g id="shape-1f771e39-d264-8038-8007-b0bb6050abea"><g class="fills" id="fills-1f771e39-d264-8038-8007-b0bb6050abea"><path d="M-0.000012814010915462859,2.133282423019409C-0.000012814010915462859,1.3865783214569092,-0.000012814010915462859,1.0132262706756592,0.1453271508216858,0.728039562702179C0.2731195092201233,0.47709351778030396,0.4770990014076233,0.27311402559280396,0.7280450463294983,0.14530639350414276C1.0132471323013306,0.00001220703143189894,1.386553406715393,0.00001220703143189894,2.1333184242248535,0.00001220703143189894L21.86668586730957,0.00001220703143189894C22.61345100402832,0.00001220703143189894,22.986757278442383,0.00001220703143189894,23.27195930480957,0.14530639350414276C23.522951126098633,0.27311402559280396,23.72679328918457,0.47709351778030396,23.85460090637207,0.728039562702179C23.99998664855957,1.0132262706756592,23.99998664855957,1.3865783214569092,23.99998664855957,2.133282423019409L23.99998664855957,4.449658393859863C23.99998664855957,4.775860786437988,23.99998664855957,4.938824653625488,23.963212966918945,5.092267036437988C23.930513381958008,5.228314399719238,23.876649856567383,5.358410835266113,23.803468704223633,5.477704048156738C23.721010208129883,5.612286567687988,23.605684280395508,5.727643013000488,23.375185012817383,5.958172798156738L15.291522026062012,14.041821479797363C15.060946464538574,14.272473335266113,14.94555950164795,14.387829780578613,14.863192558288574,14.522229194641113C14.790011405944824,14.641613960266113,14.736102104187012,14.771618843078613,14.703448295593262,14.907727241516113C14.6666898727417,15.061291694641113,14.6666898727417,15.224255561828613,14.6666898727417,15.550244331359863L14.6666898727417,18.666637420654297L9.333331108093262,24.000011444091797L9.333331108093262,15.550244331359863C9.333331108093262,15.224255561828613,9.333331108093262,15.061291694641113,9.296557426452637,14.907727241516113C9.263903617858887,14.771618843078613,9.2099027633667,14.641613960266113,9.1369047164917,14.522229194641113C9.054400444030762,14.387829780578613,8.9391508102417,14.272473335266113,8.708483695983887,14.041821479797363L0.6248193383216858,5.958172798156738C0.3942895531654358,5.727643013000488,0.2789941430091858,5.612286567687988,0.1964898705482483,5.477704048156738C0.12335449457168579,5.358410835266113,0.06949096918106079,5.228314399719238,0.03683716058731079,5.092267036437988C-0.000012814010915462859,4.938824653625488,-0.000012814010915462859,4.775860786437988,-0.000012814010915462859,4.449658393859863L-0.000012814010915462859,2.133282423019409Z" fill="none" stroke-linecap="round" stroke-linejoin="round" style="fill: none;"/></g><g fill="none" stroke-linecap="round" stroke-linejoin="round" id="strokes-8f096008-8289-8045-8007-b0db300af20b-1f771e39-d264-8038-8007-b0bb6050abea" class="strokes"><g class="inner-stroke-shape"><defs><clipPath id="inner-stroke-render-5-1f771e39-d264-8038-8007-b0bb6050abea-0"><use href="#stroke-shape-render-5-1f771e39-d264-8038-8007-b0bb6050abea-0"/></clipPath><path d="M-0.000012814010915462859,2.133282423019409C-0.000012814010915462859,1.3865783214569092,-0.000012814010915462859,1.0132262706756592,0.1453271508216858,0.728039562702179C0.2731195092201233,0.47709351778030396,0.4770990014076233,0.27311402559280396,0.7280450463294983,0.14530639350414276C1.0132471323013306,0.00001220703143189894,1.386553406715393,0.00001220703143189894,2.1333184242248535,0.00001220703143189894L21.86668586730957,0.00001220703143189894C22.61345100402832,0.00001220703143189894,22.986757278442383,0.00001220703143189894,23.27195930480957,0.14530639350414276C23.522951126098633,0.27311402559280396,23.72679328918457,0.47709351778030396,23.85460090637207,0.728039562702179C23.99998664855957,1.0132262706756592,23.99998664855957,1.3865783214569092,23.99998664855957,2.133282423019409L23.99998664855957,4.449658393859863C23.99998664855957,4.775860786437988,23.99998664855957,4.938824653625488,23.963212966918945,5.092267036437988C23.930513381958008,5.228314399719238,23.876649856567383,5.358410835266113,23.803468704223633,5.477704048156738C23.721010208129883,5.612286567687988,23.605684280395508,5.727643013000488,23.375185012817383,5.958172798156738L15.291522026062012,14.041821479797363C15.060946464538574,14.272473335266113,14.94555950164795,14.387829780578613,14.863192558288574,14.522229194641113C14.790011405944824,14.641613960266113,14.736102104187012,14.771618843078613,14.703448295593262,14.907727241516113C14.6666898727417,15.061291694641113,14.6666898727417,15.224255561828613,14.6666898727417,15.550244331359863L14.6666898727417,18.666637420654297L9.333331108093262,24.000011444091797L9.333331108093262,15.550244331359863C9.333331108093262,15.224255561828613,9.333331108093262,15.061291694641113,9.296557426452637,14.907727241516113C9.263903617858887,14.771618843078613,9.2099027633667,14.641613960266113,9.1369047164917,14.522229194641113C9.054400444030762,14.387829780578613,8.9391508102417,14.272473335266113,8.708483695983887,14.041821479797363L0.6248193383216858,5.958172798156738C0.3942895531654358,5.727643013000488,0.2789941430091858,5.612286567687988,0.1964898705482483,5.477704048156738C0.12335449457168579,5.358410835266113,0.06949096918106079,5.228314399719238,0.03683716058731079,5.092267036437988C-0.000012814010915462859,4.938824653625488,-0.000012814010915462859,4.775860786437988,-0.000012814010915462859,4.449658393859863L-0.000012814010915462859,2.133282423019409Z" id="stroke-shape-render-5-1f771e39-d264-8038-8007-b0bb6050abea-0" style="fill: none; stroke-width: 4; stroke: rgb(26, 82, 101); stroke-opacity: 1;"/></defs><use href="#stroke-shape-render-5-1f771e39-d264-8038-8007-b0bb6050abea-0" clip-path="url('#inner-stroke-render-5-1f771e39-d264-8038-8007-b0bb6050abea-0')"/></g></g></g></g></svg>