<svg width="33.149" xmlns="http://www.w3.org/2000/svg" height="32" id="screenshot-1f771e39-d264-8038-8007-b0baebd7c1b2" viewBox="0 0 33.149 32" xmlns:xlink="http://www.w3.org/1999/xlink" fill="none" version="1.1"><g id="shape-1f771e39-d264-8038-8007-b0baebd7c1b2" width="800" height="800" rx="0" ry="0" style="fill: rgb(0, 0, 0);"><g id="shape-1f771e39-d264-8038-8007-b0baebd863d9" style="display: none;"><g class="fills" id="fills-1f771e39-d264-8038-8007-b0baebd863d9"><rect width="33.14917127071834" height="32" x="0" transform="matrix(1.000000, 0.000000, 0.000000, 1.000000, 0.000000, 0.000000)" style="fill: none;" ry="0" fill="none" rx="0" y="0"/></g></g><g id="shape-1f771e39-d264-8038-8007-b0baebd8b64f"><g class="fills" id="fills-1f771e39-d264-8038-8007-b0baebd8b64f"><path d="M5.6276397705078125,3.991809129714966C5.7080841064453125,2.618273973464966,6.0479278564453125,2.021044969558716,7.0225372314453125,1.5414307117462158C8.071243286132812,1.0252563953399658,9.725234985351562,1.2654297351837158,11.671463012695312,2.216784715652466C12.509780883789062,2.626818895339966,12.595108032226562,2.635119676589966,14.064285278320312,2.453295946121216C16.016983032226562,2.211535692214966,18.530960083007812,2.212329149246216,20.333267211914062,2.455493211746216C21.696304321289062,2.639392137527466,21.785781860351562,2.630175828933716,22.626113891601562,2.219409227371216C25.388687133789062,0.868884265422821,27.569778442382812,0.957263171672821,28.359573364257812,2.451586961746216C28.753677368164062,3.197436571121216,28.826919555664062,5.132922172546387,28.521255493164062,6.729296684265137C28.351821899414062,7.614306449890137,28.369766235351562,7.724780082702637,28.778030395507812,8.305529594421387C31.650527954101562,12.391772270202637,29.580825805664062,19.015430450439453,24.658584594726562,21.487293243408203C24.281936645507812,21.676441192626953,23.964492797851562,21.793628692626953,23.705764770507812,21.888843536376953C22.911453247070312,22.181751251220703,22.670303344726562,22.270679473876953,22.962295532226562,23.618335723876953C23.102920532226562,24.266712188720703,23.272171020507812,25.878406524658203,23.338821411132812,27.200305938720703C23.459121704101562,29.589527130126953,23.457290649414062,29.606372833251953,23.023208618164062,30.093677520751953C22.432327270507812,30.756824493408203,21.580703735351562,30.767993927001953,21.003555297851562,30.120227813720703C20.627212524414062,29.697864532470703,20.590469360351562,29.498462677001953,20.590469360351562,27.868640899658203C20.590469360351562,25.460376739501953,20.317031860351562,23.859485626220703,19.670913696289062,22.487781524658203C18.902481079101562,20.855274200439453,19.472122192382812,20.246692657470703,21.229324340820312,19.881824493408203C23.671646118164062,19.374683380126953,25.579299926757812,17.919605255126953,26.642532348632812,15.752734184265137C27.653457641601562,13.693041801452637,27.805801391601562,10.846728324890137,25.978164672851562,9.115527153015137C25.458450317382812,8.519396781921387,25.422256469726562,7.979296684265137,25.793411254882812,6.350756645202637C25.932083129882812,5.742114067077637,26.048294067382812,4.956896781921387,26.051834106445312,4.605639457702637C26.057083129882812,4.050951957702637,26.004714965820312,3.967211961746216,25.651748657226562,3.967211961746216C25.428421020507812,3.967211961746216,24.575149536132812,4.280871391296387,23.755752563476562,4.664050102233887L22.448074340820312,5.275988578796387C22.329177856445312,5.331591606140137,22.196182250976562,5.352953910827637,22.064895629882812,5.338427543640137C18.739700317382812,4.969897270202637,15.579971313476562,4.964221000671387,12.238418579101562,5.339770317077637C12.106643676757812,5.354662895202637,11.973098754882812,5.333239555358887,11.853775024414062,5.277331352233887L10.546707153320312,4.665087699890137C9.727310180664062,4.281176567077637,8.874038696289062,3.967211961746216,8.650772094726562,3.967211961746216C8.134536743164062,3.967211961746216,8.126724243164062,4.335131645202637,8.597305297851562,6.521105766296387C8.884780883789062,7.856005668640137,9.078201293945312,8.153491020202637,8.247268676757812,9.220934867858887C7.0017242431640625,10.820971488952637,6.6906280517578125,12.807909965515137,7.3585357666015625,14.895495414733887C8.200332641601562,17.526050567626953,10.261734008789062,19.303394317626953,13.159866333007812,19.896289825439453C14.906875610351562,20.253711700439453,15.363540649414062,20.720142364501953,14.696426391601562,22.653980255126953C14.171279907226562,24.175891876220703,13.839187622070312,24.568042755126953,13.076065063476562,24.568042755126953C12.049270629882812,24.568042755126953,11.406082153320312,23.709461212158203,11.760025024414062,22.810962677001953C11.915908813476562,22.414966583251953,11.869522094726562,22.372669219970703,10.907608032226562,22.034107208251953C7.9712066650390625,21.000476837158203,5.7252960205078125,18.684070587158203,4.6985626220703125,15.629687309265137C3.9048614501953125,13.269152641296387,4.2540435791015625,10.196520805358887,5.5272369384765625,8.339404106140137C5.9607696533203125,7.707079887390137,5.9675445556640625,7.653368949890137,5.7652130126953125,6.442980766296387C5.6507110595703125,5.757616996765137,5.5888214111328125,4.654711723327637,5.6276397705078125,3.991809129714966Z" style="fill: rgb(26, 82, 101);"/></g></g><g id="shape-1f771e39-d264-8038-8007-b0baebd8c4e6"><g class="fills" id="fills-1f771e39-d264-8038-8007-b0baebd8c4e6"><path d="M4.6022491455078125,21.260547637939453C4.1790924072265625,20.647876739501953,3.3216094970703125,20.482227325439453,2.6868438720703125,20.890796661376953C2.0521392822265625,21.299121856689453,1.880630373954773,22.127063751220703,2.3037872314453125,22.739734649658203C2.6161346435546875,23.192188262939453,2.9898223876953125,23.563648223876953,3.3072052001953125,23.870044708251953C3.3657379150390625,23.926563262939453,3.4226226806640625,23.981067657470703,3.4781036376953125,24.034290313720703C3.7439727783203125,24.289173126220703,3.9787139892578125,24.514331817626953,4.2144317626953125,24.781360626220703C4.7358551025390625,25.372180938720703,5.2559967041015625,26.167957305908203,5.5516510009765625,27.594898223876953C5.6833648681640625,28.230579376220703,6.1565704345703125,28.572864532470703,6.4188385009765625,28.722583770751953C6.7032623291015625,28.884571075439453,7.0139312744140625,28.980396270751953,7.2696685791015625,29.042469024658203C7.7928009033203125,29.169910430908203,8.427688598632812,29.236011505126953,9.030410766601562,29.274585723876953C9.691909790039062,29.316883087158203,10.408706665039062,29.330738067626953,11.049758911132812,29.334400177001953C11.050186157226562,30.070301055908203,11.668350219726562,30.666797637939453,12.430862426757812,30.666797637939453C13.193740844726562,30.666797637939453,13.812149047851562,30.069934844970703,13.812149047851562,29.333484649658203L13.812149047851562,28.000171661376953C13.812149047851562,27.263782501220703,13.193740844726562,26.666919708251953,12.430862426757812,26.666919708251953C12.300674438476562,26.666919708251953,12.159805297851562,26.667102813720703,12.010635375976562,26.667652130126953C11.200027465820312,26.670093536376953,10.143447875976562,26.673267364501953,9.212966918945312,26.613758087158203C8.764236450195312,26.585071563720703,8.395339965820312,26.544422149658203,8.124893188476562,26.494617462158203C7.7083282470703125,24.916126251220703,7.0354766845703125,23.865833282470703,6.3173370361328125,23.052173614501953C5.9998931884765625,22.692493438720703,5.6711578369140625,22.377735137939453,5.4038238525390625,22.121997833251953C5.3537750244140625,22.074146270751953,5.3058013916015625,22.028247833251953,5.2605133056640625,21.984363555908203C4.9520416259765625,21.686695098876953,4.7503204345703125,21.474903106689453,4.6022491455078125,21.260547637939453Z" style="fill: rgb(26, 82, 101);"/></g></g></g></svg>