<svg width="33.149" xmlns="http://www.w3.org/2000/svg" height="32" id="screenshot-1f771e39-d264-8038-8007-b0bad366178a" viewBox="0 0 33.149 32" xmlns:xlink="http://www.w3.org/1999/xlink" fill="none" version="1.1"><g id="shape-1f771e39-d264-8038-8007-b0bad366178a" width="800" height="800" rx="0" ry="0" style="fill: rgb(0, 0, 0);"><g id="shape-1f771e39-d264-8038-8007-b0bad3676a69" style="display: none;"><g class="fills" id="fills-1f771e39-d264-8038-8007-b0bad3676a69"><rect width="33.149171270718284" height="32" x="0" transform="matrix(1.000000, 0.000000, 0.000000, 1.000000, 0.000000, 0.000000)" style="fill: none;" ry="0" fill="none" rx="0" y="0"/></g></g><g id="shape-1f771e39-d264-8038-8007-b0bad367f799"><g class="fills" id="fills-1f771e39-d264-8038-8007-b0bad367f799"><path d="M16.574573516845703,10.999987602233887C13.71403980255127,10.999987602233887,11.39500904083252,13.238574028015137,11.39500904083252,15.999987602233887C11.39500904083252,18.761524200439453,13.71403980255127,20.999988555908203,16.574573516845703,20.999988555908203C19.435230255126953,20.999988555908203,21.754138946533203,18.761524200439453,21.754138946533203,15.999987602233887C21.754138946533203,13.238574028015137,19.435230255126953,10.999987602233887,16.574573516845703,10.999987602233887ZM13.46684741973877,15.999987602233887C13.46684741973877,14.343188285827637,14.85826587677002,12.999987602233887,16.574573516845703,12.999987602233887C18.290943145751953,12.999987602233887,19.682300567626953,14.343188285827637,19.682300567626953,15.999987602233887C19.682300567626953,17.656848907470703,18.290943145751953,18.999988555908203,16.574573516845703,18.999988555908203C14.85826587677002,18.999988555908203,13.46684741973877,17.656848907470703,13.46684741973877,15.999987602233887Z" fill-rule="evenodd" clip-rule="evenodd" style="fill: rgb(26, 82, 101);"/></g></g><g id="shape-1f771e39-d264-8038-8007-b0bad3693223"><g class="fills" id="fills-1f771e39-d264-8038-8007-b0bad3693223"><path d="M16.539661407470703,1.6666748523712158C15.92583179473877,1.6666748523712158,15.41325855255127,1.6666748523712158,14.99254322052002,1.6943848133087158C14.55455493927002,1.7232544422149658,14.14091968536377,1.7853882312774658,13.73979663848877,1.9457275867462158C12.80913257598877,2.317919969558716,12.06969165802002,3.031726121902466,11.68413257598877,3.930163621902466C11.48344898223877,4.397875785827637,11.42906665802002,4.890795707702637,11.40831470489502,5.426623344421387C11.39165210723877,5.857348442077637,11.16649341583252,6.216723442077637,10.83415699005127,6.401904106140137C10.50188159942627,6.587084770202637,10.06688404083252,6.595629692077637,9.67216968536377,6.394213676452637C9.18114185333252,6.143664360046387,8.71172046661377,5.942675590515137,8.19176197052002,5.876574516296387C7.192982196807861,5.749621391296387,6.182911396026611,6.010912895202637,5.383717060089111,6.602953910827637C5.039295673370361,6.858019828796387,4.776600360870361,7.172778129577637,4.531727313995361,7.524523735046387C4.296497821807861,7.862414360046387,4.040333271026611,8.290881156921387,3.7333266735076904,8.804125785827637L3.6984755992889404,8.862414360046387C3.3914687633514404,9.375597953796387,3.1352431774139404,9.804064750671387,2.9497573375701904,10.169604301452637C2.7566421031951904,10.550219535827637,2.6055800914764404,10.927172660827637,2.5489394664764404,11.342700004577637C2.4174087047576904,12.306811332702637,2.6880385875701904,13.281847953796387,3.3013808727264404,14.053515434265137C3.6205337047576904,14.454882621765137,4.035511493682861,14.746874809265137,4.505787372589111,15.032153129577637C4.883900165557861,15.261523246765137,5.093739032745361,15.629504203796387,5.093739032745361,15.999987602233887C5.093677997589111,16.370532989501953,4.883839130401611,16.738452911376953,4.505787372589111,16.967761993408203C4.035511493682861,17.252918243408203,3.6204726696014404,17.544910430908203,3.3011977672576904,17.946460723876953C2.6879775524139404,18.717945098876953,2.4172866344451904,19.693042755126953,2.5487563610076904,20.657215118408203C2.6054580211639404,21.072681427001953,2.7565200328826904,21.449695587158203,2.9496352672576904,21.830249786376953C3.1351211071014404,22.195911407470703,3.3914077281951904,22.624195098876953,3.6983535289764404,23.137500762939453L3.7332046031951904,23.195911407470703C4.040150165557861,23.709095001220703,4.296375751495361,24.137500762939453,4.531605243682861,24.475391387939453C4.776478290557861,24.827075958251953,5.039112567901611,25.141773223876953,5.383533954620361,25.396961212158203C6.182728290557861,25.988941192626953,7.192860126495361,26.250293731689453,8.19157886505127,26.123340606689453C8.71159839630127,26.057239532470703,9.18095874786377,25.856250762939453,9.67198657989502,25.605640411376953C10.06676197052002,25.404285430908203,10.50182056427002,25.412769317626953,10.83415699005127,25.598133087158203C11.16649341583252,25.783374786376953,11.39165210723877,26.142688751220703,11.40831470489502,26.573413848876953C11.42906665802002,27.109180450439453,11.48344898223877,27.602161407470703,11.68413257598877,28.069812774658203C12.06969165802002,28.968250274658203,12.80913257598877,29.682117462158203,13.73979663848877,30.054309844970703C14.14091968536377,30.214649200439453,14.55455493927002,30.276844024658203,14.99254322052002,30.305591583251953C15.41325855255127,30.333301544189453,15.92583179473877,30.333301544189453,16.539661407470703,30.333301544189453L16.609363555908203,30.333301544189453C17.223316192626953,30.333301544189453,17.735767364501953,30.333301544189453,18.156604766845703,30.305591583251953C18.594593048095703,30.276844024658203,19.008289337158203,30.214649200439453,19.409351348876953,30.054309844970703C20.340015411376953,29.682117462158203,21.079517364501953,28.968250274658203,21.465076446533203,28.069812774658203C21.665699005126953,27.602161407470703,21.720081329345703,27.109180450439453,21.740711212158203,26.573352813720703C21.757495880126953,26.142688751220703,21.982593536376953,25.783374786376953,22.314929962158203,25.597949981689453C22.647266387939453,25.412769317626953,23.082324981689453,25.404285430908203,23.477039337158203,25.605640411376953C23.968128204345703,25.856128692626953,24.437366485595703,26.057239532470703,24.957447052001953,26.123218536376953C25.956226348876953,26.250171661376953,26.966297149658203,25.988941192626953,27.765491485595703,25.396961212158203C28.109912872314453,25.141773223876953,28.372486114501953,24.827075958251953,28.617420196533203,24.475391387939453C28.852649688720703,24.137500762939453,29.108814239501953,23.709095001220703,29.415760040283203,23.195911407470703L29.450672149658203,23.137500762939453C29.757556915283203,22.624195098876953,30.013965606689453,22.195728302001953,30.199451446533203,21.830066680908203C30.392566680908203,21.449512481689453,30.543506622314453,21.072681427001953,30.600269317626953,20.657215118408203C30.731800079345703,19.692981719970703,30.461048126220703,18.717884063720703,29.847827911376953,17.946460723876953C29.528614044189453,17.544727325439453,29.113513946533203,17.252918243408203,28.643360137939453,16.967761993408203C28.265186309814453,16.738452911376953,28.055408477783203,16.370532989501953,28.055408477783203,15.999804496765137C28.055408477783203,15.629504203796387,28.265186309814453,15.261523246765137,28.643238067626953,15.032214164733887C29.113697052001953,14.747057914733887,29.528675079345703,14.455187797546387,29.847888946533203,14.053515434265137C30.461170196533203,13.282031059265137,30.731922149658203,12.306933403015137,30.600391387939453,11.342761039733887C30.543628692626953,10.927294731140137,30.392688751220703,10.550341606140137,30.199634552001953,10.169726371765137C30.014087677001953,9.804125785827637,29.757862091064453,9.375781059265137,29.450794219970703,8.862597465515137L29.416065216064453,8.804247856140137C29.108936309814453,8.291003227233887,28.852771759033203,7.862475395202637,28.617542266845703,7.524584770202637C28.372669219970703,7.172900199890137,28.110095977783203,6.858080863952637,27.765613555908203,6.602953910827637C26.966480255126953,6.011034965515137,25.956348419189453,5.749682426452637,24.957447052001953,5.876635551452637C24.437610626220703,5.942797660827637,23.968189239501953,6.143725395202637,23.477222442626953,6.394274711608887C23.082447052001953,6.595690727233887,22.647388458251953,6.587145805358887,22.315052032470703,6.401965141296387C21.982715606689453,6.216723442077637,21.757495880126953,5.857348442077637,21.740711212158203,5.426562309265137C21.720081329345703,4.890795707702637,21.665699005126953,4.397875785827637,21.465076446533203,3.930163621902466C21.079517364501953,3.031726121902466,20.340015411376953,2.317919969558716,19.409351348876953,1.9457275867462158C19.008289337158203,1.7853882312774658,18.594593048095703,1.7232544422149658,18.156604766845703,1.6943848133087158C17.735767364501953,1.6666748523712158,17.223316192626953,1.6666748523712158,16.609363555908203,1.6666748523712158L16.539661407470703,1.6666748523712158ZM14.53258228302002,3.793566942214966C14.63921070098877,3.750903367996216,14.80107593536377,3.711596727371216,15.13359546661377,3.689746141433716C15.47539234161377,3.667163133621216,15.91685962677002,3.666674852371216,16.574573516845703,3.666674852371216C17.232288360595703,3.666674852371216,17.673755645751953,3.667163133621216,18.015491485595703,3.689746141433716C18.348072052001953,3.711596727371216,18.509937286376953,3.750903367996216,18.616443634033203,3.793566942214966C19.039539337158203,3.962695360183716,19.375720977783203,4.287158012390137,19.550830841064453,4.695483207702637C19.606189727783203,4.824328422546387,19.651905059814453,5.025134086608887,19.670459747314453,5.501330375671387C19.711292266845703,6.557787895202637,20.276233673095703,7.575121879577637,21.279102325439453,8.133959770202637C22.281909942626953,8.692919731140137,23.477039337158203,8.656542778015137,24.445301055908203,8.162524223327637C24.881641387939453,7.939867973327637,25.084827423095703,7.877795219421387,25.227954864501953,7.859545707702637C25.681934356689453,7.801867485046387,26.140979766845703,7.920580863952637,26.504261016845703,8.189684867858887C26.595874786376953,8.257494926452637,26.712024688720703,8.373156547546387,26.897876739501953,8.640246391296387C27.089099884033203,8.914721488952637,27.310230255126953,9.283434867858887,27.639087677001953,9.833361625671387C27.968006134033203,10.383227348327637,28.188220977783203,10.752551078796387,28.338977813720703,11.049487113952637C28.485523223876953,11.338427543640137,28.531238555908203,11.493395805358887,28.546314239501953,11.603869438171387C28.606067657470703,12.042101860046387,28.483020782470703,12.485278129577637,28.204273223876953,12.835925102233887C28.116321563720703,12.946703910827637,27.959095001220703,13.085375785827637,27.541004180908203,13.338793754577637C26.613819122314453,13.901354789733887,25.983692169189453,14.882250785827637,25.983570098876953,15.999804496765137C25.983570098876953,17.117664337158203,26.613697052001953,18.098621368408203,27.541004180908203,18.661243438720703C27.958972930908203,18.914722442626953,28.116199493408203,19.053394317626953,28.204151153564453,19.163990020751953C28.482898712158203,19.514636993408203,28.605945587158203,19.957813262939453,28.546131134033203,20.396167755126953C28.531055450439453,20.506519317626953,28.485401153564453,20.661426544189453,28.338794708251953,20.950366973876953C28.188098907470703,21.247241973876953,27.967761993408203,21.616687774658203,27.638904571533203,22.166492462158203C27.310108184814453,22.716419219970703,27.088916778564453,23.085132598876953,26.897815704345703,23.359668731689453C26.711841583251953,23.626636505126953,26.595691680908203,23.742359161376953,26.504138946533203,23.810169219970703C26.140857696533203,24.079273223876953,25.681751251220703,24.198047637939453,25.227710723876953,24.140430450439453C25.084705352783203,24.122180938720703,24.881519317626953,24.060047149658203,24.445178985595703,23.837512969970703C23.476978302001953,23.343372344970703,22.281787872314453,23.307056427001953,21.278858184814453,23.866016387939453C20.276233673095703,24.424976348876953,19.711292266845703,25.442188262939453,19.670459747314453,26.498706817626953C19.651905059814453,26.974781036376953,19.606189727783203,27.175586700439453,19.550830841064453,27.304492950439453C19.375720977783203,27.712818145751953,19.039539337158203,28.037281036376953,18.616443634033203,28.206531524658203C18.509937286376953,28.249011993408203,18.348072052001953,28.288379669189453,18.015491485595703,28.310230255126953C17.673755645751953,28.332813262939453,17.232288360595703,28.333301544189453,16.574573516845703,28.333301544189453C15.91685962677002,28.333301544189453,15.47539234161377,28.332813262939453,15.13359546661377,28.310230255126953C14.80107593536377,28.288379669189453,14.63921070098877,28.249011993408203,14.53258228302002,28.206531524658203C14.10966968536377,28.037281036376953,13.77348804473877,27.712818145751953,13.59825611114502,27.304492950439453C13.54295825958252,27.175586700439453,13.49712085723877,26.974781036376953,13.47868824005127,26.498706817626953C13.43779468536377,25.442188262939453,12.87291431427002,24.424976348876953,11.87004566192627,23.866016387939453C10.86717700958252,23.307056427001953,9.67210865020752,23.343433380126953,8.70384693145752,23.837512969970703C8.26744556427002,24.060169219970703,8.06438159942627,24.122241973876953,7.921192646026611,24.140430450439453C7.467213153839111,24.198047637939453,7.008106708526611,24.079273223876953,6.644825458526611,23.810230255126953C6.553272724151611,23.742481231689453,6.437122821807861,23.626758575439453,6.251209735870361,23.359668731689453C6.060108661651611,23.085254669189453,5.838917255401611,22.716602325439453,5.509998798370361,22.166675567626953C5.181202411651611,21.616809844970703,4.960926532745361,21.247486114501953,4.810230731964111,20.950489044189453C4.663624286651611,20.661609649658203,4.617969989776611,20.506519317626953,4.602894306182861,20.396167755126953C4.543140888214111,19.957813262939453,4.666126728057861,19.514636993408203,4.944935321807861,19.163990020751953C5.032825946807861,19.053516387939453,5.190052509307861,18.914722442626953,5.608021259307861,18.661243438720703C6.535267353057861,18.098804473876953,7.165516376495361,17.117786407470703,7.165516376495361,16.000171661376953C7.165577411651611,14.882250785827637,6.535450458526611,13.901171684265137,5.608021259307861,13.338671684265137C5.190174579620361,13.085131645202637,5.032948017120361,12.946459770202637,4.944996356964111,12.835925102233887C4.666248798370361,12.485217094421387,4.543262958526611,12.041979789733887,4.603016376495361,11.603686332702637C4.618031024932861,11.493334770202637,4.663746356964111,11.338305473327637,4.810352802276611,11.049426078796387C4.961048603057861,10.752367973327637,5.181263446807861,10.383166313171387,5.510181903839111,9.833239555358887C5.839039325714111,9.283373832702637,6.060230731964111,8.914660453796387,6.251331806182861,8.640124320983887C6.437244892120361,8.373095512390137,6.553455829620361,8.257433891296387,6.644947528839111,8.189623832702637C7.008167743682861,7.920519828796387,7.467335224151611,7.801745414733887,7.921314716339111,7.859484672546387C8.06456470489502,7.877673149108887,8.26762866973877,7.939806938171387,8.70403003692627,8.162463188171387C9.67229175567627,8.656420707702637,10.86729907989502,8.692797660827637,11.87010669708252,8.133959770202637C12.87291431427002,7.575060844421387,13.43779468536377,6.557787895202637,13.47868824005127,5.501391410827637C13.49712085723877,5.025195121765137,13.54295825958252,4.824328422546387,13.59825611114502,4.695483207702637C13.77348804473877,4.287158012390137,14.10966968536377,3.962695360183716,14.53258228302002,3.793566942214966Z" fill-rule="evenodd" clip-rule="evenodd" style="fill: rgb(26, 82, 101);"/></g></g></g></svg>