<svg width="120" xmlns="http://www.w3.org/2000/svg" height="120" id="screenshot-1f771e39-d264-8038-8007-b0beb44e9d55" viewBox="0 0 120 120" xmlns:xlink="http://www.w3.org/1999/xlink" fill="none" version="1.1"><g id="shape-1f771e39-d264-8038-8007-b0beb44e9d55" width="800" height="800" rx="0" ry="0" style="fill: rgb(0, 0, 0);"><g id="shape-1f771e39-d264-8038-8007-b0beb44ff604" style="display: none;"><g class="fills" id="fills-1f771e39-d264-8038-8007-b0beb44ff604"><rect width="119.99999999999997" height="120" x="0" transform="matrix(1.000000, 0.000000, 0.000000, 1.000000, 0.000000, 0.000000)" style="fill: none;" ry="0" fill="none" rx="0" y="0"/></g></g><g id="shape-1f771e39-d264-8038-8007-b0beb45036b6"><g class="fills" id="fills-1f771e39-d264-8038-8007-b0beb45036b6"><path d="M48.75,0L48.75,60L71.25,60L71.25,0L48.75,0Z" style="fill: rgb(248, 113, 104); fill-opacity: 1;"/></g></g><g id="shape-1f771e39-d264-8038-8007-b0beb4505ed5"><g class="fills" id="fills-1f771e39-d264-8038-8007-b0beb4505ed5"><path d="M33.48358154296875,86.51614379882812C18.83880615234375,71.8719482421875,18.83880615234375,48.128082275390625,33.48358154296875,33.48358154296875L17.57354736328125,17.57354736328125C-5.8578338623046875,41.005096435546875,-5.8578338623046875,78.99539184570312,17.57354736328125,102.42672729492188C41.005096435546875,125.8575439453125,78.99533081054688,125.8575439453125,102.42672729492188,102.42672729492188C125.8575439453125,78.99539184570312,125.8575439453125,41.005096435546875,102.42672729492188,17.57354736328125L86.51611328125,33.48358154296875C101.16146850585938,48.128082275390625,101.16146850585938,71.8719482421875,86.51611328125,86.51614379882812C71.8719482421875,101.16146850585938,48.128082275390625,101.16146850585938,33.48358154296875,86.51614379882812Z" style="fill: rgb(248, 113, 104); fill-opacity: 1;"/></g></g></g></svg>